PathFileType	4	(X/Y/Z)	 s01c0202.trc
DataRate	CameraRate	NumFrames	NumMarkers	Units	OrigDataRate	OrigDataStartFrame	OrigNumFrames
200	200	5	48	mm	200	1501	2000
Frame#	Time	racr			lacr			c7			jug			rlel			rdr			llel			ldr			s2			lic			ric			lasi			rasi			rpsi			lpsi			rgt			lgt			rth1			rth2			rth3			rth4			rlfc			rsh1			rsh2			rsh3			rsh4			rlmal			rmmal			rcal			rtoe			rmt5			lth1			lth2			lth4			lth3			llfc			lsh1			lsh2			lsh3			lsh4			llmal			lmmal			lcal			ltoe			lmt5			SBIKE			LBIKE			RBIKE			
		X1	Y1	Z1	X2	Y2	Z2	X3	Y3	Z3	X4	Y4	Z4	X5	Y5	Z5	X6	Y6	Z6	X7	Y7	Z7	X8	Y8	Z8	X9	Y9	Z9	X10	Y10	Z10	X11	Y11	Z11	X12	Y12	Z12	X13	Y13	Z13	X14	Y14	Z14	X15	Y15	Z15	X16	Y16	Z16	X17	Y17	Z17	X18	Y18	Z18	X19	Y19	Z19	X20	Y20	Z20	X21	Y21	Z21	X22	Y22	Z22	X23	Y23	Z23	X24	Y24	Z24	X25	Y25	Z25	X26	Y26	Z26	X27	Y27	Z27	X28	Y28	Z28	X29	Y29	Z29	X30	Y30	Z30	X31	Y31	Z31	X32	Y32	Z32	X33	Y33	Z33	X34	Y34	Z34	X35	Y35	Z35	X36	Y36	Z36	X37	Y37	Z37	X38	Y38	Z38	X39	Y39	Z39	X40	Y40	Z40	X41	Y41	Z41	X42	Y42	Z42	X43	Y43	Z43	X44	Y44	Z44	X45	Y45	Z45	X46	Y46	Z46	X47	Y47	Z47	X48	Y48	Z48	
1501	7.5050	497.790998	1295.198980	-77.239844	507.681777	1287.133985	-437.656122	478.291802	1386.678937	-259.490720	476.762649	1224.600091	-258.788052	486.701321	1022.895653	26.346981	675.768447	874.481295	-51.438457	497.305964	1018.036363	-542.351529	667.178710	866.176612	-432.753201	-29.558991	1133.842169	-257.630837	136.823003	1152.644165	-425.667712	123.214029	1145.113909	-99.862871	145.156444	1098.659054	-404.834973	154.194895	1101.710787	-129.671510	-2.365055	1172.687739	-206.300113	-3.683001	1176.157269	-311.824461	80.946469	1024.958002	-71.504916	90.193181	1007.534352	-452.587528	191.303075	941.648314	-52.908329	264.087799	902.550023	-57.216830	340.706870	854.621861	-68.846528	292.822248	949.810031	-69.501561	403.185115	770.337951	-92.598249	309.003045	704.075109	-62.936881	243.835762	649.452978	-68.679748	170.855945	599.746132	-80.635160	274.413029	614.773552	-107.046297	64.679197	538.383071	-101.364341	107.717817	521.226815	-179.454373	14.191954	546.280172	-157.100482	190.797923	340.477601	-134.662707	94.619661	395.339093	-69.686030	171.799508	902.909112	-458.349286	251.221842	860.408499	-458.590751	277.538907	908.512908	-454.359252	321.834420	815.437965	-437.509508	404.820216	731.860835	-418.125877	342.957448	636.376062	-446.508875	324.233385	552.294126	-440.091155	303.132283	469.802924	-425.542414	378.190646	542.809962	-411.232125	270.602450	349.234728	-408.994928	NaN	NaN	NaN	219.806360	313.288856	-365.553485	497.643343	289.238395	-371.397800	392.450507	269.211900	-436.522196	-224.694823	892.914734	-252.884552	-12.662075	84.552090	-456.123855	-21.659070	80.883006	-56.069327	
1502	7.5100	497.591379	1295.447017	-77.140587	507.582368	1287.619023	-437.206229	478.073297	1386.918672	-259.187011	476.477968	1224.940726	-258.626530	486.681373	1022.968180	26.110153	675.825987	874.531251	-51.495425	497.737855	1018.550471	-541.831953	667.297393	866.096933	-432.424933	-29.623452	1134.130151	-257.849922	136.871485	1153.170064	-425.733778	122.873379	1145.587457	-99.773706	145.039390	1098.872588	-404.939357	154.127725	1102.228504	-129.887034	-2.471336	1173.007508	-206.548350	-3.763552	1176.335581	-312.101166	81.134412	1026.179779	-71.445471	89.500665	1007.496472	-452.604930	192.516927	944.845436	-52.866657	265.887407	906.788185	-57.218860	343.033318	859.558054	-68.808336	293.528480	954.156162	-70.270308	406.143781	775.125412	-92.843508	311.291687	709.560523	-63.406732	245.680530	655.488655	-69.066097	172.470554	606.264046	-80.959440	275.842609	620.275512	-107.857926	66.001719	545.312715	-101.363365	108.757542	527.960792	-179.725763	14.880858	552.103856	-157.295383	193.691308	348.456632	-134.608324	96.940695	402.310804	-69.601677	168.941614	900.998132	-458.630482	247.071795	856.580574	-458.431710	274.610364	904.227855	-455.115317	316.734487	810.045615	-438.222909	399.523530	725.506607	-418.466050	337.943646	629.337198	-447.029339	320.123228	545.555087	-440.344380	299.414363	463.010463	-425.754456	373.986127	536.416939	-411.317818	267.457685	342.094724	-408.917849	NaN	NaN	NaN	216.975439	306.154939	-365.286800	494.685108	282.772812	-371.502733	389.541742	262.441393	-436.549067	-224.684022	892.944341	-252.925711	-12.663361	84.559201	-456.128710	-21.653185	80.892735	-56.073018	
1503	7.5150	497.392090	1295.672905	-77.021524	507.493635	1288.122318	-436.748168	477.871394	1387.203235	-258.912546	476.195123	1225.221253	-258.484638	486.673453	1023.090587	25.878690	675.883224	874.555201	-51.527221	498.173073	1018.985229	-541.287929	667.445733	866.044969	-432.115411	-29.676333	1134.491013	-258.198514	136.910459	1153.602552	-425.762963	122.616720	1146.149120	-99.746086	144.860127	1099.070493	-405.106739	154.125193	1102.755077	-130.156101	-2.537549	1173.303382	-206.792115	-3.818710	1176.554395	-312.363766	81.382590	1027.562415	-71.308998	88.801167	1007.517397	-452.655061	193.733367	947.956461	-53.048233	267.593300	910.830226	-57.256995	345.301124	864.516196	-68.714520	294.530337	958.475370	-70.782736	408.932215	779.998113	-93.633864	313.553974	714.964873	-63.712488	247.946701	661.290525	-69.267473	174.031426	612.755081	-81.315006	277.447473	625.720400	-108.297375	66.950133	551.703749	-102.103166	109.661843	534.555547	-180.021937	15.511558	557.849742	-157.562661	196.959977	356.489669	-134.671386	99.533108	409.162252	-69.664743	166.025518	899.287001	-458.914988	243.009221	853.195783	-458.785253	271.579293	900.257294	-455.814309	311.620257	805.301268	-438.456238	394.050969	719.451339	-418.798085	333.534230	623.310501	-447.613497	315.728113	539.016774	-440.644032	295.435640	456.362340	-425.920676	369.559348	530.229361	-411.391767	264.108770	335.131238	-408.795525	NaN	NaN	NaN	213.893060	299.275052	-365.072765	491.469996	276.294782	-371.654815	386.275009	255.842451	-436.707528	-224.694146	892.935730	-252.940000	-12.640300	84.566964	-456.131479	-21.668105	80.896898	-56.082117	
1504	7.5200	497.211971	1295.944309	-76.887495	507.440818	1288.559415	-436.369669	477.725639	1387.487981	-258.627234	475.892201	1225.522163	-258.283092	486.644748	1023.207346	25.688873	675.950388	874.569103	-51.556030	498.557841	1019.400809	-540.805402	667.582716	866.005437	-431.869159	-29.691847	1134.861415	-258.322167	136.936355	1153.915021	-425.807499	122.407131	1146.689976	-99.737897	144.676022	1099.286827	-405.278135	154.152340	1103.280299	-130.441185	-2.587464	1173.602299	-206.996749	-3.824276	1176.759138	-312.616504	81.709227	1028.912487	-71.110275	88.000690	1007.535048	-452.626306	194.873854	951.024050	-53.279246	269.216423	914.823468	-57.374151	347.216620	869.538840	-68.657639	295.425532	962.659262	-71.517253	411.658647	784.824647	-93.897783	315.598093	720.514219	-64.124332	249.707521	667.202748	-69.571020	175.507159	619.119234	-81.640820	279.118538	631.421869	-108.441929	67.824314	558.010136	-102.035997	110.515633	540.998436	-180.334293	16.267550	564.017598	-157.946914	200.369848	364.510963	-134.675047	102.347564	415.903903	-69.625401	163.082764	897.751779	-459.201749	238.891240	850.023996	-459.130135	268.547423	896.390367	-456.412270	306.494688	800.859997	-438.936515	388.411700	713.523930	-419.097865	328.469988	617.024723	-447.967143	310.820558	532.318741	-440.661650	291.240851	449.893331	-426.045697	365.004948	524.109787	-411.493529	260.556704	328.356090	-408.623939	NaN	NaN	NaN	210.593418	292.597682	-364.832538	487.959082	269.968131	-371.756123	382.829873	249.341657	-436.750577	-224.680527	892.945875	-252.968950	-12.650132	84.572835	-456.145945	-21.660626	80.904575	-56.082792	
1505	7.5250	497.049317	1296.220166	-76.738742	507.435136	1289.014550	-435.984387	477.607934	1387.792046	-258.352924	475.660752	1225.772602	-258.061389	486.652328	1023.305149	25.521871	675.992073	874.584883	-51.576834	498.917069	1019.805032	-540.383376	667.709899	865.966386	-431.655013	-29.686368	1135.208221	-258.292207	136.918386	1154.288751	-425.891337	122.271487	1147.252856	-99.747516	144.485296	1099.436016	-405.426247	154.208274	1103.912449	-130.743582	-2.617193	1173.954193	-207.175792	-3.854503	1177.008728	-312.815239	82.045711	1030.335053	-70.907410	87.134703	1007.551991	-452.626726	196.038197	954.140315	-53.407985	270.830295	918.871155	-57.389707	349.330567	874.468199	-68.573883	296.312536	966.757133	-72.246050	414.317718	789.718126	-94.064060	317.623215	726.004956	-64.333093	251.094363	673.130057	-70.037772	177.023695	625.408295	-81.946460	280.713746	637.004931	-108.558817	68.915324	564.148946	-102.226518	111.461993	547.305929	-180.634121	16.755989	568.718321	-158.433751	204.155427	372.514585	-134.666222	105.337782	422.519156	-69.612585	160.140703	896.367870	-459.490785	234.848613	847.163859	-459.523064	265.438817	892.951985	-457.056320	301.368851	796.748342	-439.515802	382.642063	707.703088	-419.448751	323.204222	610.899162	-448.206420	306.276141	526.462932	-441.111044	286.770560	443.563012	-426.190870	360.178578	518.246235	-411.680134	256.748589	321.845259	-408.457440	NaN	NaN	NaN	207.080531	286.132311	-364.566084	484.276136	263.605399	-371.898468	379.069261	242.978304	-436.903369	-224.654618	892.956035	-252.995829	-12.662034	84.567562	-456.138249	-21.673282	80.916895	-56.089725	
